# xmcd
#
# Track frame offsets:
#	182
#	15625
#	31820
#	45770
#	59290
#	67852
#	85910
#	102142
#	116185
#	132277
#	150575
#	165120
#	182502
#	205325
#	219980
#	236435
#
# Disc length: 3288 seconds
#
# Revision: 1
# Processed by: cddbd v1.5.1PL0 Copyright (c) Steve Scherf et al.
# Submitted via: EasyCDDAExtractor 6.2.0.3
#
DISCID=bd0cd610
DTITLE=vereinigung der fusball fans e.v. - Fussball Parade
DYEAR=1900
DGENRE=Cult
TTITLE0=Also sprach Zarathustra
TTITLE1=Buenos dias Argentinia
TTITLE2=Bin i Radi bin i Koning
TTITLE3=Schwarz Weiss Blau, Hamburger SV
TTITLE4=Fussball lied
TTITLE5=Ihr seid niemals allein
TTITLE6=Fussball ist unser leben
TTITLE7=Einer muss noch rein
TTITLE8=Forever number one
TTITLE9=Borussia
TTITLE10=WM 1954
TTITLE11=Vor, noch ein tor
TTITLE12=Jetzt geht's los
TTITLE13=In der westkurve
TTITLE14=Hau rein
TTITLE15=Mexico 1986
EXTD=
EXTT0=
EXTT1=
EXTT2=
EXTT3=
EXTT4=
EXTT5=
EXTT6=
EXTT7=
EXTT8=
EXTT9=
EXTT10=
EXTT11=
EXTT12=
EXTT13=
EXTT14=
EXTT15=
PLAYORDER=
